<svg xmlns="http://www.w3.org/2000/svg" viewBox="0 0 511.999 511.999" style="width:70px;fill:#9FD2D8;"><path d="M472.413 105.566H424.11l-29.364-48.937c-.029-.048-.063-.091-.092-.138a8.69 8.69 0 00-.472-.671 7.485 7.485 0 00-.526-.605 7.162 7.162 0 00-.248-.245 7.76 7.76 0 00-.315-.287 8.89 8.89 0 00-.597-.463 8.871 8.871 0 00-.631-.399 7.963 7.963 0 00-.377-.198 6.328 6.328 0 00-.719-.314 8.305 8.305 0 00-.274-.1 8.162 8.162 0 00-1.18-.299 8.048 8.048 0 00-1.175-.116c-.061-.002-.122-.009-.183-.009H229.611c-.058 0-.112.007-.17.009a8.911 8.911 0 00-.82.059 9.105 9.105 0 00-.79.14 10.14 10.14 0 00-.75.211c-.099.033-.197.071-.295.108a8.223 8.223 0 00-.411.168 7.113 7.113 0 00-.305.147 7.82 7.82 0 00-.363.191c-.111.063-.219.13-.326.198a7.367 7.367 0 00-.307.202c-.113.08-.225.164-.335.251-.09.07-.178.14-.264.213a8.436 8.436 0 00-1.09 1.139 8.209 8.209 0 00-.471.67c-.029.048-.063.09-.092.138l-29.364 48.937h-72.055V81.815a7.916 7.916 0 00-7.917-7.917h-63.34a7.917 7.917 0 00-7.917 7.917v23.751h-2.641C17.759 105.566 0 123.325 0 145.153v274.474c0 21.829 17.759 39.587 39.587 39.587h432.825c21.829 0 39.587-17.759 39.587-39.587V145.153c.001-21.828-17.758-39.587-39.586-39.587zM58.063 89.732h47.505v15.834H58.063V89.732zm414.35 353.648h-351.01V145.154a7.917 7.917 0 10-15.834 0V443.38H39.587c-13.097 0-23.752-10.655-23.752-23.752v-55.952h23.754a7.917 7.917 0 100-15.834H15.835v-26.128h23.754a7.917 7.917 0 100-15.834H15.835v-26.13h23.754a7.917 7.917 0 100-15.834H15.835v-26.128h23.754a7.917 7.917 0 100-15.834H15.835v-76.799c0-13.097 10.656-23.752 23.752-23.752h158.331l.015.001c.018 0 .034-.003.051-.003.298-.002.59-.023.878-.056.081-.01.162-.025.243-.037.234-.035.465-.078.693-.133.079-.02.159-.04.238-.062a7.88 7.88 0 00.716-.234c.056-.021.111-.038.165-.06.289-.117.568-.248.838-.396.046-.026.091-.057.137-.084.213-.124.422-.256.623-.399.088-.062.172-.127.258-.193.168-.13.33-.267.487-.41.072-.065.146-.128.217-.197.217-.211.421-.434.611-.67.039-.048.073-.099.111-.148.164-.213.317-.435.46-.663.022-.035.048-.065.07-.1l29.364-48.937h149.382l29.364 48.937c.022.036.048.065.069.1.143.229.297.451.462.663.037.048.071.1.11.148.191.235.395.458.611.67.07.069.144.131.216.197.157.143.319.28.487.41.086.066.17.131.258.193.201.143.408.275.623.399.046.027.091.058.137.084.269.149.55.279.837.396.055.022.111.04.166.06.234.089.472.167.716.234.079.022.159.042.238.062.228.055.459.098.693.133.081.012.162.027.243.037.289.033.58.054.878.056.016 0 .033.003.05.003l.016-.001h52.762c13.097 0 23.752 10.655 23.752 23.752v274.473h.002c0 13.097-10.656 23.752-23.752 23.752z"/><path d="M308.771 179.462c-59.665 0-108.205 48.541-108.205 108.205s48.541 108.205 108.205 108.205 108.205-48.541 108.205-108.205c0-59.665-48.541-108.205-108.205-108.205zm0 200.575c-50.934 0-92.37-41.437-92.37-92.37s41.437-92.37 92.37-92.37c50.934 0 92.37 41.437 92.37 92.37s-41.437 92.37-92.37 92.37z"/><path d="M353.722 250.866c-6.751-6.752-15.727-10.47-25.275-10.47-7.102 0-13.889 2.058-19.677 5.89-5.791-3.832-12.576-5.89-19.678-5.89-9.546 0-18.523 3.717-25.277 10.471-13.931 13.939-13.931 36.617.002 50.554l39.356 39.352c1.545 1.546 3.572 2.319 5.598 2.319s4.052-.773 5.599-2.319l39.351-39.352c6.753-6.752 10.474-15.73 10.474-25.278 0-9.549-3.721-18.526-10.473-25.277zm-11.198 39.357l-33.753 33.754-33.758-33.753c-7.761-7.763-7.76-20.398-.001-28.161a19.784 19.784 0 0114.079-5.832c5.319 0 10.32 2.072 14.082 5.833a7.917 7.917 0 0011.196-.002c3.76-3.76 8.759-5.831 14.077-5.831s10.317 2.071 14.078 5.832a19.775 19.775 0 015.835 14.079 19.773 19.773 0 01-5.835 14.081zM384.754 110.543l-8.445-21.111c-.007-.017-.016-.031-.022-.048a7.315 7.315 0 00-.231-.5c-.037-.075-.07-.153-.109-.226-.071-.135-.152-.263-.231-.393-.059-.097-.114-.198-.177-.293-.056-.083-.118-.159-.175-.239-.096-.132-.19-.266-.293-.39-.023-.028-.049-.054-.073-.083a7.913 7.913 0 00-1.002-.995c-.031-.026-.065-.048-.097-.073a8.286 8.286 0 00-.502-.375 7.49 7.49 0 00-.571-.348c-.023-.013-.045-.029-.068-.042a7.844 7.844 0 00-1.312-.566l-.088-.032c-.158-.05-.322-.089-.483-.129-.092-.023-.181-.051-.273-.07-.115-.025-.234-.039-.352-.059-.145-.024-.29-.051-.436-.067-.087-.009-.174-.011-.261-.018a8.159 8.159 0 00-.542-.027c-.018 0-.035-.003-.053-.003H248.612l-.045.002a8.591 8.591 0 00-.581.029c-.074.006-.148.008-.222.015-.163.017-.324.046-.484.074-.101.018-.204.03-.304.051-.111.024-.221.056-.33.085-.144.037-.289.07-.429.114-.053.016-.103.039-.155.057a8.022 8.022 0 00-.567.211l-.031.015c-.222.096-.439.2-.649.315-.052.028-.099.062-.149.091-.166.096-.332.192-.491.299a7.506 7.506 0 00-.529.396c-.023.019-.048.035-.071.053-.36.297-.692.63-.999.992-.025.029-.053.056-.077.087-.102.124-.195.256-.289.387-.06.081-.123.159-.178.243-.062.093-.117.193-.176.29-.079.131-.161.26-.233.395-.038.073-.071.151-.108.226a7.828 7.828 0 00-.231.5c-.006.017-.014.032-.022.048l-8.445 21.111a7.917 7.917 0 1014.702 5.883l6.455-16.134h109.622l6.455 16.134a7.92 7.92 0 007.354 4.979c.979 0 1.974-.183 2.939-.569a7.917 7.917 0 004.41-10.292zM456.582 137.237c-13.101 0-23.759 10.658-23.759 23.759 0 13.1 10.658 23.759 23.759 23.759s23.759-10.658 23.759-23.759c-.001-13.101-10.658-23.759-23.759-23.759zm0 31.682c-4.369 0-7.924-3.555-7.924-7.924s3.555-7.924 7.924-7.924 7.924 3.555 7.924 7.924-3.555 7.924-7.924 7.924z"/><path d="M444.432 253.561c-15.265-60.696-70.295-105.769-135.662-105.769-77.127 0-139.875 62.748-139.875 139.875s62.748 139.875 139.875 139.875c65.366 0 120.397-45.073 135.662-105.77 17.182-1.854 30.605-16.44 30.605-34.105 0-17.667-13.422-32.253-30.605-34.106zM308.771 411.707c-68.396 0-124.04-55.644-124.04-124.04s55.644-124.04 124.04-124.04c59.615 0 109.535 42.275 121.373 98.419.004.056.003.111.008.167.06.587.188 1.15.365 1.689a124.092 124.092 0 012.294 23.765c0 68.396-55.644 124.04-124.04 124.04zm138.824-106.904a140.689 140.689 0 001.05-17.136c0-5.801-.362-11.519-1.052-17.136 6.794 2.732 11.608 9.377 11.608 17.136.001 7.759-4.813 14.404-11.606 17.136zM176.826 158.351h-31.67a7.917 7.917 0 100 15.834h31.67a7.917 7.917 0 100-15.834z"/></svg>
