<svg height="512pt" viewBox="0 0 512 512.00073" width="512pt" xmlns="http://www.w3.org/2000/svg"><path d="m169.820312 202.15625c-1.464843-3.902344-5.195312-6.488281-9.363281-6.488281h-111.207031c-4.167969 0-7.898438 2.585937-9.363281 6.488281l-33.621094 89.660156c-9.398437 25.058594-8.175781 53.285156 3.351563 77.433594 14.054687 29.453125 41.695312 50.078125 73.933593 55.167969 3.664063.578125 7.34375 1 11.03125 1.277343v66.304688h-34.824219c-5.523437 0-10 4.476562-10 10s4.476563 10 10 10h89.648438c5.523438 0 10-4.476562 10-10s-4.476562-10-10-10h-34.824219v-66.273438c3.867188-.273437 7.730469-.703124 11.574219-1.308593 32.238281-5.089844 59.878906-25.714844 73.933594-55.167969 11.527344-24.152344 12.75-52.375 3.355468-77.433594zm-113.640624 13.511719h97.347656l24.992187 66.648437c-8.648437 4.898438-32.847656 14.335938-69.601562-4.808594-31.230469-16.261718-55.761719-15.109374-72.0625-10.308593zm125.859374 144.96875c-11.21875 23.503906-33.273437 39.960937-59 44.027343-12.066406 1.902344-24.304687 1.902344-36.371093 0-25.726563-4.066406-47.785157-20.523437-59-44.027343-9.199219-19.273438-10.175781-41.796875-2.675781-61.796875l2-5.339844.332031.375c1.070312-.925781 26.742187-22.382812 72.355469 1.371094 19.835937 10.332031 37.039062 13.773437 51.160156 13.773437 15.441406 0 27.195312-4.117187 34.683594-7.847656 6.582031 19.40625 5.359374 40.933594-3.484376 59.464844zm0 0"/><path d="m511.613281 106.320312c-1.429687-5.335937-6.914062-8.5-12.246093-7.070312l-208.882813 55.96875c-27.679687 7.417969-57.085937-2.285156-74.917969-24.722656-2.476562-3.117188-6.566406-4.46875-10.414062-3.4375l-23.738282 6.363281-7.421874-27.699219 23.738281-6.363281c3.847656-1.027344 6.714843-4.246094 7.300781-8.183594 4.222656-28.34375 24.839844-51.449219 52.519531-58.867187l47.195313-12.644532c5.332031-1.429687 8.5-6.914062 7.070312-12.25-1.429687-5.332031-6.914062-8.5-12.246094-7.070312l-47.195312 12.648438c-33.21875 8.898437-58.476562 35.480468-65.902344 68.679687l-88.828125 23.800781c-4.882812 1.308594-8.964843 4.441406-11.492187 8.820313-2.523438 4.375-3.195313 9.476562-1.886719 14.359375l7.976563 29.777344c1.308593 4.882812 4.441406 8.964843 8.816406 11.488281 4.378906 2.53125 9.480468 3.203125 14.363281 1.890625l88.824219-23.800782c17.5625 19.09375 42.179687 29.667969 67.609375 29.667969 7.917969 0 15.917969-1.023437 23.804687-3.140625l208.882813-55.96875c5.335937-1.429687 8.5-6.910156 7.070312-12.246094zm-400.332031 45.890626-7.421875-27.699219 50.816406-13.613281 7.421875 27.699218zm0 0"/><path d="m247.296875 108.066406c-3.4375-4.324218-9.726563-5.042968-14.046875-1.605468-4.324219 3.433593-5.042969 9.726562-1.609375 14.046874 10.582031 13.3125 26.5 20.757813 42.988281 20.757813 4.734375 0 9.511719-.613281 14.226563-1.878906l36.246093-9.710938c5.335938-1.429687 8.5-6.914062 7.070313-12.25-1.429687-5.332031-6.910156-8.5-12.246094-7.070312l-36.246093 9.714843c-13.445313 3.601563-27.722657-1.113281-36.382813-12.003906zm0 0"/><path d="m364.285156 118.003906c2.640625 0 5.210938-1.070312 7.082032-2.929687 1.859374-1.859375 2.917968-4.441407 2.917968-7.070313s-1.058594-5.210937-2.917968-7.070312c-1.871094-1.859375-4.441407-2.929688-7.082032-2.929688-2.628906 0-5.210937 1.070313-7.070312 2.929688s-2.929688 4.441406-2.929688 7.070312 1.070313 5.210938 2.929688 7.070313 4.441406 2.929687 7.070312 2.929687zm0 0"/></svg>