<svg height="511pt" viewBox="-27 1 511 511.999" width="511pt" xmlns="http://www.w3.org/2000/svg"><path d="m416.875 296.632812c35.613281-35.617187 49.742188-87.992187 36.875-136.6875l-40.300781-152.5c-1.15625-4.386718-5.128907-7.445312-9.667969-7.445312h-174.632812c-4.539063 0-8.507813 3.058594-9.667969 7.445312l-5.164063 19.554688h-162.214844c-4.539062 0-8.507812 3.058594-9.667968 7.445312l-37.550782 142.105469c-12.054687 45.605469 1.179688 94.664063 34.539063 128.019531 17.894531 17.898438 40 30.0625 64.078125 35.578126v76.054687c0 5.800781-3.460938 10.996094-8.8125 13.234375l-46.054688 19.273438c-8.398437 3.511718-13.011718 12.203124-11.21875 21.128906 1.792969 8.925781 9.402344 15.160156 18.507813 15.160156h155.085937c9.109376 0 16.71875-6.234375 18.511719-15.167969 1.789063-8.929687-2.832031-17.617187-11.234375-21.128906l-45.96875-19.203125c-5.355468-2.234375-8.816406-7.433594-8.816406-13.234375v-76.132813c23.472656-5.390624 45.0625-17.109374 62.707031-34.289062 17.933594 14.789062 38.671875 24.5 60.292969 29.132812v108.226563c0 5.800781-3.457031 10.996094-8.808594 13.234375l-46.054687 19.269531c-8.398438 3.515625-13.015625 12.203125-11.222657 21.132813 1.792969 8.925781 9.402344 15.160156 18.507813 15.160156h155.089844c9.105469 0 16.71875-6.238281 18.507812-15.167969 1.789063-8.929687-2.828125-17.617187-11.230469-21.128906l-45.972656-19.203125c-5.355468-2.238281-8.816406-7.433594-8.816406-13.238281v-108.296875c25.808594-5.542969 50.359375-18.320313 70.375-38.332032zm-180.023438-276.632812h159.230469l38.332031 145.054688c11.054688 41.839843-1.085937 86.835937-31.683593 117.433593-47.566407 47.566407-124.964844 47.566407-172.53125 0-22.675781-22.675781-35.199219-53.261719-35.671875-84.605469h170.9375c5.523437 0 10-4.480468 10-10 0-5.523437-4.476563-10-10-10h-169.589844c.648438-4.296874 1.519531-8.578124 2.644531-12.828124zm-212.632812 161.660156 35.582031-134.660156h147.324219l.953125 3.601562-28.898437 109.34375c-2.320313 8.78125-3.746094 17.679688-4.34375 26.578126-.0625.445312-.105469.894531-.105469 1.359374 0 .03125.003906.0625.003906.09375-.484375 8.585938-.175781 17.160157.875 25.621094h-155.054687c-.304688-10.644531.878906-21.398437 3.664062-31.9375zm-1.304688 51.9375h156.640626c5.867187 21.5 16.761718 41.617188 32.148437 58.453125-21.140625 20.3125-48.832031 31.472657-78.238281 31.472657-30.183594 0-58.558594-11.753907-79.902344-33.09375-15.753906-15.753907-26.214844-35.628907-30.648438-56.832032zm141.691407 214.359375 40.800781 17.042969h-143.890625l40.894531-17.113281c12.8125-5.359375 21.089844-17.796875 21.089844-31.683594v-73.042969c3.296875.242188 6.621094.367188 9.964844.367188 3.367187 0 6.710937-.125 10.035156-.375v73.113281c0 13.894531 8.285156 26.335937 21.105469 31.691406zm183 27 40.800781 17.042969h-143.890625l40.894531-17.113281c12.8125-5.359375 21.089844-17.796875 21.089844-31.683594v-105.398437c3.316406.230468 6.640625.351562 9.964844.351562 3.347656 0 6.695312-.121094 10.035156-.355469v105.460938c0 13.898437 8.285156 26.339843 21.105469 31.695312zm0 0"/><path d="m409.136719 197.878906c2.628906 0 5.207031-1.070312 7.070312-2.929687 1.855469-1.859375 2.929688-4.4375 2.929688-7.070313 0-2.628906-1.070313-5.207031-2.929688-7.070312-1.863281-1.859375-4.441406-2.929688-7.070312-2.929688-2.632813 0-5.210938 1.070313-7.070313 2.929688-1.871094 1.863281-2.929687 4.441406-2.929687 7.070312 0 2.632813 1.058593 5.210938 2.929687 7.070313 1.859375 1.859375 4.429688 2.929687 7.070313 2.929687zm0 0"/></svg>