<svg id="Capa_1" enable-background="new 0 0 512 512" height="512" viewBox="0 0 512 512" width="512" xmlns="http://www.w3.org/2000/svg"><path d="m511.926 429.774-8.962-97.937c-1.77-19.342-17.752-33.929-37.175-33.929h-15.179c-3.024-15.508-15.122-27.414-30.39-30.391v-25.394c6.99-.861 13.449-4.282 18.095-9.692 5.41-6.301 7.792-14.623 6.536-22.833l-6.636-43.364c-.892-5.831-5.82-10.063-11.72-10.063h-27.546c-5.898 0-10.827 4.232-11.72 10.062l-6.636 43.365c-1.256 8.209 1.126 16.531 6.536 22.832 4.645 5.41 11.102 8.832 18.092 9.693v25.394c-15.26 2.975-27.354 14.873-30.388 30.391h-16.043v-87.606c0-4.142-3.358-7.5-7.5-7.5s-7.5 3.358-7.5 7.5v18.846l-40.917 14.378c-.335.118-.705.118-1.04-.001l-40.703-14.369s.019-67.461.024-67.73h82.612c.005.269.024.536.024.806v13.07c0 4.142 3.358 7.5 7.5 7.5s7.5-3.358 7.5-7.5v-13.07c0-3.045-.271-6.06-.77-9.022-.034-.364-.101-.717-.185-1.063-2.556-13.556-10.176-25.864-21.461-34.123l-6.029-4.42c-.136-.1-.214-.253-.214-.421v-77.389c0-7.297-5.936-13.233-13.233-13.233h-28.875c-7.297 0-13.233 5.936-13.233 13.233v77.389c0 .168-.078.322-.214.421l-6.025 4.416c-11.292 8.264-18.563 20.647-21.467 34.136-.074.344-.148.691-.183 1.05-.499 2.964-.77 5.98-.77 9.026v102.398h-17.939v-58.474c0-3.922-2.152-7.501-5.617-9.34-2.603-1.381-5.604-1.6-8.314-.693v-62.52c0-4.704-3.097-8.677-7.706-9.888-4.595-1.205-9.417.81-11.716 4.885-3.636 6.404-7.109 12.804-10.456 19.2-2.61-7.833-5.309-14.384-8.074-19.557-2.452-4.597-7.301-7.444-12.669-7.444-.024 0-.048 0-.071 0-5.391.025-10.241 2.921-12.658 7.558-15.622 29.977-23.93 86.693-20.148 136.273h-58.324c-5.005 0-9.435 3.188-11.024 7.934s.027 9.959 4.022 12.973l16.399 12.372h-35.625c-19.423 0-35.405 14.586-37.175 33.928l-.817 8.927c-.377 4.125 2.661 7.775 6.785 8.152 4.121.382 7.775-2.66 8.152-6.785l.817-8.927c1.059-11.57 10.619-20.295 22.238-20.295h419.577c11.619 0 21.179 8.725 22.238 20.296l8.962 97.936c.083.915-.341 1.789-1.107 2.281-22.889 14.676-53.042 20.049-79.997 14.509v-49.189c0-4.142-3.358-7.5-7.5-7.5s-7.5 3.358-7.5 7.5v51.177c-38.284 25.516-95.124 32.183-137.384 14.824v-71.077c0-4.142-3.358-7.5-7.5-7.5s-7.5 3.358-7.5 7.5v71.077c-42.218 17.341-99.064 10.716-137.385-14.824v-51.177c0-4.142-3.358-7.5-7.5-7.5s-7.5 3.358-7.5 7.5v49.189c-26.955 5.539-57.108.166-79.996-14.509-.767-.492-1.191-1.366-1.108-2.281l4.942-54.01c.377-4.125-2.66-7.775-6.785-8.152-4.134-.382-7.775 2.661-8.152 6.785l-4.942 54.011c-.596 6.513 2.45 12.749 7.949 16.275 26.933 17.268 62.669 23.247 94.109 15.919 43.72 29.544 107.232 35.918 153.868 15.901 46.7 20.045 110.215 13.597 153.869-15.901 31.439 7.329 67.176 1.349 94.109-15.92 5.498-3.526 8.544-9.762 7.948-16.275zm-113.417-207.115c-2.557-2.979-3.683-6.912-3.089-10.792l6.228-40.696h22.148l6.228 40.696c.594 3.88-.533 7.814-3.09 10.792s-6.274 4.686-10.2 4.686c-.23 0-8.342 0-8.025 0-3.925.001-7.643-1.707-10.2-4.686zm14.211 59.134c10.396 0 19.27 6.643 22.406 16.116h-44.815c3.133-9.469 12.01-16.116 22.409-16.116zm-122.931-244.232h25.341v30.672h-25.341zm-6.345 88.141c3.973-2.913 6.345-7.593 6.345-12.519v-29.95h25.341v29.95c0 4.926 2.372 9.606 6.346 12.519 3.433 3.024 13.307 7.535 19.023 20.725h-76.078c5.744-13.254 15.716-17.811 19.023-20.725zm-22.314 119.362 35.71 12.606c3.492 1.232 7.401 1.275 11.006.008l35.944-12.63v52.861h-76.37l16.399-12.372c3.996-3.014 5.612-8.227 4.023-12.973s-6.02-7.934-11.024-7.934h-15.688zm-109.22 19.567c15.355-15.744 35.568-32.268 61.282-50.089v50.089zm47.35-112.922v54.278c-13.122 9.279-24.818 18.252-35.169 26.987 8.902-26.731 20.666-53.927 35.169-81.265zm-35.616-15.311c3.676 7.219 7.423 17.869 10.912 31.015-12.356 25.864-22.285 51.559-29.697 76.826-.565-41.067 6.602-83.597 18.785-107.841zm-55.255 161.51c-1.06 0-2.114-.352-2.959-.99l-22.916-17.288h171.068c.016 0 .032.002.048.002s.032-.002.048-.002h13.064l-22.916 17.289c-.845.638-1.899.99-2.959.99h-132.478z"/></svg>