<svg width="80" height="80" xmlns="http://www.w3.org/2000/svg">

 <g>
  <title>background</title>
  <rect fill="none" id="canvas_background" height="82" width="82" y="-1" x="-1"/>
 </g>
 <g>
  <title>Layer 1</title>
  <path stroke="null" id="svg_1" d="m77.98871,67.25323l-1.34779,-15.07784c-0.2662,-2.97778 -2.66973,-5.22352 -5.59075,-5.22352l-2.28277,0c-0.45478,-2.38752 -2.2742,-4.2205 -4.57036,-4.67883l0,-3.90952c1.05123,-0.13255 2.0226,-0.65923 2.72131,-1.49213c0.81361,-0.97007 1.17184,-2.25128 0.98295,-3.51524l-0.99799,-6.67608c-0.13415,-0.89771 -0.87527,-1.54924 -1.76257,-1.54924l-4.14264,0c-0.887,0 -1.62827,0.65153 -1.76257,1.54909l-0.99799,6.67624c-0.18888,1.26381 0.16934,2.54502 0.98295,3.51509c0.69857,0.83289 1.66963,1.35973 2.72086,1.49228l0,3.90952c-2.29495,0.45802 -4.11377,2.28976 -4.57005,4.67883l-2.41271,0l0,-13.48733c0,-0.63768 -0.50501,-1.15466 -1.12792,-1.15466s-1.12792,0.51698 -1.12792,1.15466l0,2.90142l-6.15351,2.21355c-0.05038,0.01817 -0.10602,0.01817 -0.15641,-0.00015l-6.12132,-2.21217s0.00285,-10.38592 0.0036,-10.42733l12.42402,0c0.00075,0.04141 0.00361,0.08252 0.00361,0.12408l0,2.01218c0,0.63768 0.505,1.15466 1.12792,1.15466s1.12792,-0.51698 1.12792,-1.15466l0,-2.01218c0,-0.46879 -0.04075,-0.93296 -0.1158,-1.38898c-0.00512,-0.05604 -0.01519,-0.11039 -0.02782,-0.16365c-0.3844,-2.087 -1.53036,-3.98188 -3.22752,-5.25339l-0.9067,-0.68048c-0.02045,-0.0154 -0.03218,-0.03895 -0.03218,-0.06482l0,-11.91438c0,-1.12341 -0.89272,-2.03728 -1.99011,-2.03728l-4.34251,0c-1.0974,0 -1.99011,0.91387 -1.99011,2.03728l0,11.91438c0,0.02586 -0.01173,0.04957 -0.03218,0.06482l-0.9061,0.67986c-1.6982,1.27228 -2.79169,3.1787 -3.22842,5.25539c-0.01113,0.05296 -0.02225,0.10638 -0.02752,0.16165c-0.07504,0.45632 -0.1158,0.92065 -0.1158,1.38959l0,15.76463l-2.69785,0l0,-9.00233c0,-0.60381 -0.32364,-1.15482 -0.84474,-1.43793c-0.39146,-0.21261 -0.84278,-0.24633 -1.25034,-0.10669l0,-9.62523c0,-0.72421 -0.46576,-1.33587 -1.15891,-1.5223c-0.69104,-0.18551 -1.41622,0.1247 -1.76197,0.75207c-0.54682,0.98592 -1.06913,1.97123 -1.57248,2.95592c-0.39252,-1.20592 -0.79842,-2.21448 -1.21425,-3.01089c-0.36876,-0.70773 -1.098,-1.14604 -1.90529,-1.14604c-0.00361,0 -0.00722,0 -0.01068,0c-0.81075,0.00385 -1.54015,0.4497 -1.90364,1.16359c-2.34939,4.61509 -3.59883,13.34677 -3.03006,20.97983l-8.77135,0c-0.7527,0 -1.41893,0.49081 -1.6579,1.22147s0.00406,1.53324 0.60487,1.99725l2.46624,1.90473l-5.35764,0c-2.92103,0 -5.32456,2.24558 -5.59075,5.22336l-0.12287,1.37436c-0.0567,0.63506 0.40019,1.197 1.0204,1.25504c0.61976,0.05882 1.16928,-0.40952 1.22598,-1.04458l0.12287,-1.37435c0.15926,-1.78125 1.59699,-3.1245 3.34437,-3.1245l63.10019,0c1.74738,0 3.18511,1.34325 3.34438,3.12466l1.34779,15.07768c0.01248,0.14087 -0.05128,0.27543 -0.16649,0.35117c-3.44227,2.25945 -7.97698,3.08664 -12.03074,2.23373l0,-7.57286c0,-0.63769 -0.50501,-1.15466 -1.12792,-1.15466s-1.12793,0.51698 -1.12793,1.15466l0,7.87892c-5.75753,3.9283 -14.30571,4.95472 -20.66118,2.28222l0,-10.94262c0,-0.63767 -0.50501,-1.15466 -1.12793,-1.15466s-1.12793,0.51698 -1.12793,1.15466l0,10.94262c-6.34916,2.66973 -14.89823,1.64978 -20.66133,-2.28222l0,-7.87892c0,-0.63769 -0.50501,-1.15466 -1.12793,-1.15466s-1.12793,0.51698 -1.12793,1.15466l0,7.57286c-4.05376,0.85275 -8.58847,0.02556 -12.0306,-2.23373c-0.11535,-0.07574 -0.17911,-0.2103 -0.16663,-0.35117l0.74323,-8.31508c0.0567,-0.63506 -0.40004,-1.19699 -1.0204,-1.25503c-0.62171,-0.05882 -1.16928,0.40967 -1.22598,1.04457l-0.74323,8.31523c-0.08963,1.00271 0.36846,1.96277 1.19545,2.50561c4.05045,2.65849 9.42479,3.57898 14.15305,2.45081c6.57505,4.54843 16.12662,5.52973 23.14021,2.44803c7.02322,3.08601 16.57524,2.09332 23.14036,-2.44803c4.72811,1.12833 10.1026,0.20768 14.15305,-2.45096c0.82684,-0.54284 1.28493,-1.50291 1.1953,-2.50561zm-17.05679,-31.88627c-0.38454,-0.45863 -0.55389,-1.06413 -0.46455,-1.66148l0.93663,-6.26533l3.33083,0l0.93663,6.26533c0.08934,0.59734 -0.08015,1.203 -0.46471,1.66148s-0.94354,0.72143 -1.53397,0.72143c-0.0346,0 -1.25456,0 -1.20688,0c-0.59029,0.00015 -1.14943,-0.2628 -1.53398,-0.72143zm2.1372,9.10394c1.56345,0 2.89801,1.02272 3.36964,2.48113l-6.73973,0c0.47117,-1.45779 1.80619,-2.48113 3.37009,-2.48113zm-18.4876,-37.60059l3.81104,0l0,4.72209l-3.81104,0l0,-4.72209zm-0.95422,13.5697c0.5975,-0.44847 0.95422,-1.16898 0.95422,-1.92736l0,-4.61094l3.81104,0l0,4.61094c0,0.75838 0.35673,1.47889 0.95438,1.92736c0.51628,0.46556 2.00124,1.16005 2.86087,3.19071l-11.44137,0c0.86384,-2.04051 2.36353,-2.74208 2.86087,-3.19071zm-3.3558,18.37631l5.37043,1.94075c0.52516,0.18967 1.11303,0.19629 1.65519,0.00123l5.40562,-1.94445l0,8.13818l-11.48529,0l2.46625,-1.90472c0.60096,-0.46402 0.84399,-1.26659 0.60502,-1.99725s-0.90535,-1.22147 -1.6579,-1.22147l-2.35931,0l0,-3.01227zm-16.4256,3.01243c2.30924,-2.42386 5.34907,-4.96781 9.2162,-7.71143l0,7.71143l-9.2162,0zm7.12097,-17.38485l0,8.35634c-1.97342,1.42854 -3.73238,2.80997 -5.28906,4.15477c1.33877,-4.11536 3.10796,-8.3023 5.28906,-12.51111zm-5.35629,-2.35719c0.55283,1.11139 1.11634,2.75101 1.64105,4.7749c-1.85822,3.98188 -3.35144,7.93773 -4.46613,11.8277c-0.08497,-6.32244 0.99287,-12.87013 2.82508,-16.6026l0,0zm-8.3098,24.86518c-0.15941,0 -0.31793,-0.0542 -0.44501,-0.15241l-3.44634,-2.66156l25.72692,0c0.0024,0 0.00481,0.00031 0.00722,0.00031s0.00481,-0.00031 0.00722,-0.00031l1.96469,0l-3.44634,2.66172c-0.12708,0.09822 -0.28559,0.15241 -0.445,0.15241l-19.92336,0l0,-0.00015z"/>
 </g>
</svg>