<svg height="511pt" viewBox="-41 0 511 511.99833" width="511pt" xmlns="http://www.w3.org/2000/svg"><path d="m126.601562 72.304688c1.859376 1.867187 4.4375 2.929687 7.070313 2.929687 2.628906 0 5.210937-1.070313 7.070313-2.929687 1.859374-1.863282 2.929687-4.433594 2.929687-7.070313 0-2.632813-1.070313-5.210937-2.929687-7.070313-1.859376-1.859374-4.441407-2.929687-7.070313-2.929687-2.632813 0-5.210937 1.066406-7.070313 2.929687-1.859374 1.859376-2.929687 4.4375-2.929687 7.070313 0 2.628906 1.070313 5.207031 2.929687 7.070313zm0 0"/><path d="m427.863281 279.992188c-6.703125-11.613282-23.878906-9.082032-29.523437-8.253907-5.46875.804688-11.765625 2.230469-18.828125 4.253907.820312-4.171876-1.097657-8.566407-5.027344-10.710938-4.84375-2.640625-10.921875-.855469-13.566406 3.996094l-10.527344 19.3125c-1.488281 2.734375-1.621094 6.003906-.359375 8.847656 1.265625 2.84375 3.78125 4.9375 6.804688 5.664062l16.53125 3.964844c.785156.191406 1.566406.28125 2.339843.28125 4.519531 0 8.617188-3.082031 9.71875-7.667968.375-1.558594.351563-3.117188.011719-4.578126 12.867188-3.65625 19.890625-4.230468 23.40625-4.125-2.542969 4.746094-10.582031 15.816407-35.824219 36.167969-19.972656 16.101563-45.734375 33.90625-74.097656 51.296875l-43.496094-75.339844c5.722657-4.949218 11.101563-10.324218 16.070313-16.089843 25.890625-30.042969 36.863281-69.6875 30.105468-108.769531-5.277343-30.511719-21.199218-58.332032-44.835937-78.335938l-115.25-97.539062c-3.222656-2.726563-7.808594-3.136719-11.460937-1.027344l-124.554688 71.914062c-3.652344 2.105469-5.5898438 6.285156-4.839844 10.4375l26.847656 148.578125c5.507813 30.472657 21.636719 58.171875 45.421876 77.996094 24 20.003906 53.808593 30.65625 84.429687 30.65625 8.246094 0 16.554687-.773437 24.820313-2.34375 7.5-1.425781 14.863281-3.402344 22.035156-5.898437l12.796875 22.167968c-33.691407 20.957032-63.292969 42.285156-83.777344 60.394532-27.082031 23.933593-36.105469 39.894531-29.261719 51.75 3.460938 5.996093 9.9375 9.007812 19.953125 9.007812 11.273438 0 27.035157-3.8125 48.035157-11.464844 24.828124-9.050781 54.503906-22.722656 85.648437-39.371094l1.523437 2.632813c2.792969 4.839844 2.410157 10.839844-.976562 15.285156l-29.597656 38.859375c-5.460938 7.171875-5.117188 16.902344.839844 23.667969 3.683593 4.1875 8.769531 6.390625 13.960937 6.390625 3.195313 0 6.433594-.835938 9.40625-2.554688l131.414063-75.867187c7.808593-4.511719 11.246093-13.625 8.359374-22.164063-2.882812-8.542968-11.136718-13.707031-20.085937-12.554687l-48.347656 6.21875c-5.546875.710937-10.9375-1.957031-13.730469-6.796875l-1.445312-2.503906c32.386718-19.824219 61.238281-40.046875 82.808593-58.132813 32.34375-27.117187 43.488281-44.898437 36.125-57.652343zm-293.898437-257.8125 99.027344 83.8125-21.21875 12.246093-42.761719-36.191406c-4.214844-3.566406-10.523438-3.042969-14.09375 1.175781-3.566407 4.214844-3.042969 10.523438 1.175781 14.09375l37.277344 31.550782-148.710938 85.855468-23.070312-127.664062zm44.484375 296.75c-33.066407 6.28125-66.859375-2.476563-92.714844-24.027344-18.398437-15.335938-31.375-36.234375-37.070313-59.394532l200.324219-115.660156c17.210938 16.515625 28.820313 38.199219 32.902344 61.804688 5.738281 33.164062-3.574219 66.808594-25.546875 92.304687-20.050781 23.269531-47.714844 39.242188-77.894531 44.972657zm60.910156-3.648438 42.402344 73.441406c-1.753907 1.027344-3.511719 2.054688-5.277344 3.074219-3.78125 2.183594-7.558594 4.324219-11.332031 6.4375l-42.363282-73.382813c5.710938-2.851562 11.246094-6.046874 16.570313-9.570312zm-67.132813 127.789062c-30.25 11.6875-43.871093 13.109376-49.234374 12.941407 2.292968-4.273438 9.042968-13.671875 28.832031-30.398438 19.179687-16.21875 45.714843-35.0625 75.191406-53.433593l20.585937 35.652343c-27.0625 14.433594-53.109374 26.636719-75.375 35.238281zm120.828126-34.785156c6.839843 11.847656 20.027343 18.375 33.601562 16.632813l41.847656-5.382813-120.066406 69.320313 25.628906-33.652344c8.285156-10.878906 9.222656-25.5625 2.382813-37.402344l-1.292969-2.246093c3.765625-2.109376 7.542969-4.25 11.328125-6.433594 1.769531-1.023438 3.527344-2.046875 5.277344-3.070313zm0 0"/></svg>