<svg height="512pt" viewBox="0 0 512 512" width="512pt" xmlns="http://www.w3.org/2000/svg"><path d="m501.957031 441.5625c5.523438 0 10-4.476562 10-10v-81.871094c0-3.519531-1.9375-6.894531-4.988281-8.65625l-85.507812-49.503906c-3.566407-2.0625-8.03125-1.730469-11.25.839844-4.019532 3.207031-9.789063 2.875-13.425782-.761719-2.296875-2.292969-3.332031-5.457031-2.84375-8.675781.617188-4.066406-1.316406-8.09375-4.875-10.15625l-76.066406-44.039063c-9.320312-5.394531-20.148438-6.410156-29.914062-3.496093 5.121093-24.328126 3.453124-49.796876-5.019532-73.394532l-52.164062-145.226562c-1.425782-3.972656-5.191406-6.621094-9.410156-6.621094h-146.992188c-4.222656 0-7.988281 2.648438-9.414062 6.621094l-52.164063 145.226562c-10.679687 29.738282-10.558594 62.441406.347656 92.097656 13.964844 37.980469 43.886719 67.417969 82.09375 80.757813 7.414063 2.585937 14.992188 4.609375 22.664063 6.066406v112.433594c0 5.800781-3.457032 10.996094-8.808594 13.234375l-46.054688 19.273438c-8.398437 3.511718-13.015624 12.203124-11.222656 21.128906 1.792969 8.925781 9.402344 15.160156 18.507813 15.160156h155.089843c5.242188 0 9.976563-2.074219 13.402344-5.527344 5.640625 3.5 12.28125 5.527344 19.394532 5.527344h19.375c5.523437 0 10-4.476562 10-10 0-5.570312 4.53125-10.101562 10.101562-10.101562s10.101562 4.53125 10.101562 10.101562c0 5.523438 4.476563 10 10 10h162.167969c20.335938 0 36.878907-16.542969 36.878907-36.878906v-3.359375c0-5.523438-4.480469-10-10-10-5.570313 0-10.101563-4.53125-10.101563-10.101563 0-5.566406 4.527344-10.097656 10.097656-10.097656zm-198.980469-195.515625 70.976563 41.089844c.632813 6.957031 3.667969 13.59375 8.6875 18.613281 9.105469 9.105469 22.695313 11.253906 33.914063 6.050781l48.171874 27.890625h-226.675781c5.664063-33.242187 20.183594-64.167968 42.191407-89.726562 5.683593-6.605469 15.25-8.253906 22.734374-3.917969zm49.277344 113.644531c-3.460937 5.949219-9.890625 9.964844-17.253906 9.964844s-13.792969-4.015625-17.253906-9.964844zm-179.226562-28.933594c7.648437-1.457031 15.203125-3.476562 22.597656-6.054687 10.25-3.578125 19.894531-8.324219 28.800781-14.074219-3.148437 10.285156-5.503906 20.855469-7.019531 31.628906l-.851562 6.039063c-.066407.460937-.097657.925781-.097657 1.394531v121.269532l-34.613281-14.457032c-5.355469-2.238281-8.816406-7.4375-8.816406-13.238281zm-96.496094-310.757812h132.925781l44.980469 125.230469h-25.507812l-19.40625-54.035157c-1.867188-5.195312-7.597657-7.898437-12.792969-6.03125-5.195313 1.867188-7.898438 7.597657-6.03125 12.792969l16.980469 47.273438h-176.128907zm-49.492188 217.042969c-8.484374-23.074219-9.277343-48.3125-2.417968-71.8125h236.746094c6.859374 23.5 6.066406 48.738281-2.417969 71.8125-11.894531 32.347656-37.375 57.417969-69.917969 68.777343-29.6875 10.363282-62.386719 10.363282-92.074219 0-32.539062-11.359374-58.023437-36.429687-69.917969-68.777343zm44.003907 254.957031 40.894531-17.113281c12.8125-5.359375 21.089844-17.796875 21.089844-31.683594v-109.925781c3.320312.207031 6.644531.308594 9.96875.308594 3.34375 0 6.691406-.101563 10.03125-.3125v109.988281c0 13.898437 8.285156 26.335937 21.109375 31.691406l40.796875 17.046875zm400.8125-40.339844c0 12.847656 8.089843 23.839844 19.441406 28.152344-2.039063 7.03125-8.539063 12.1875-16.214844 12.1875h-153.875c-4.132812-11.695312-15.300781-20.101562-28.394531-20.101562s-24.261719 8.40625-28.394531 20.101562h-11.082031c-9.308594 0-16.878907-7.570312-16.878907-16.878906v-115.429688h59.84375c4.449219 17.210938 20.113281 29.964844 38.699219 29.964844s34.25-12.753906 38.699219-29.964844h118.257812v63.578125c-11.695312 4.128907-20.101562 15.296875-20.101562 28.390625zm0 0"/><path d="m436.917969 383.5c-2.628907 0-5.210938 1.070312-7.070313 2.929688-1.859375 1.859374-2.929687 4.441406-2.929687 7.070312s1.070312 5.210938 2.929687 7.070312c1.863282 1.859376 4.441406 2.929688 7.070313 2.929688 2.628906 0 5.210937-1.070312 7.070312-2.929688 1.859375-1.859374 2.929688-4.441406 2.929688-7.070312s-1.070313-5.210938-2.929688-7.070312c-1.859375-1.859376-4.441406-2.929688-7.070312-2.929688zm0 0"/><path d="m280.328125 411.5c-2.628906 0-5.210937 1.070312-7.070313 2.929688-1.859374 1.859374-2.929687 4.429687-2.929687 7.070312 0 2.628906 1.070313 5.210938 2.929687 7.070312 1.863282 1.859376 4.441407 2.929688 7.070313 2.929688s5.210937-1.070312 7.070313-2.929688c1.859374-1.859374 2.929687-4.441406 2.929687-7.070312s-1.070313-5.210938-2.929687-7.070312c-1.859376-1.859376-4.429688-2.929688-7.070313-2.929688zm0 0"/><path d="m350.828125 445c-2.628906 0-5.210937 1.070312-7.070313 2.929688-1.859374 1.859374-2.929687 4.441406-2.929687 7.070312s1.070313 5.210938 2.929687 7.070312c1.863282 1.859376 4.441407 2.929688 7.070313 2.929688 2.640625 0 5.210937-1.070312 7.070313-2.929688 1.867187-1.859374 2.929687-4.441406 2.929687-7.070312s-1.0625-5.210938-2.929687-7.070312c-1.859376-1.859376-4.429688-2.929688-7.070313-2.929688zm0 0"/><path d="m416.917969 418c-16.542969 0-30 13.457031-30 30s13.457031 30 30 30 30-13.457031 30-30-13.457031-30-30-30zm0 40c-5.515625 0-10-4.484375-10-10s4.484375-10 10-10c5.511719 0 10 4.484375 10 10s-4.488281 10-10 10zm0 0"/><path d="m187.039062 68.179688c2.628907 0 5.210938-1.058594 7.066407-2.929688 1.863281-1.859375 2.933593-4.441406 2.933593-7.070312 0-2.628907-1.070312-5.210938-2.933593-7.070313-1.855469-1.859375-4.4375-2.929687-7.066407-2.929687-2.628906 0-5.210937 1.070312-7.070312 2.929687s-2.929688 4.441406-2.929688 7.070313c0 2.640624 1.066407 5.210937 2.929688 7.070312 1.859375 1.871094 4.441406 2.929688 7.070312 2.929688zm0 0"/></svg>