<svg id="Capa_1" enable-background="new 0 0 511.566 511.566" height="512" viewBox="0 0 511.566 511.566" width="512" xmlns="http://www.w3.org/2000/svg"><g><g><path d="m510.493 443.353-4.746-12.098c-2.597-6.62-7.617-11.833-14.135-14.677s-13.753-2.981-20.367-.385l-30.458 11.925c-7.292-18.586-26.532-67.624-26.542-67.648-13.261-33.799-13.342-72.224.146-105.968 3.485-8.718 8.945-16.742 12.07-25.5 8.916-24.987 12.155-51.025 6.896-77.305-2.512-12.554-6.857-24.761-13.076-35.962-9.261-16.681-20.746-35.909-34.136-57.151-2.207-3.503-6.838-4.55-10.339-2.345-3.503 2.208-4.552 6.837-2.345 10.339 5.298 8.406 10.287 16.481 14.957 24.206l-109.782 43.073c1.504-27.898 2.144-54.199 2.413-70.8.16-9.84-4.306-18.978-11.537-25.034l55.184-21.651c7.371-2.888 15.896-.215 20.287 6.358 2.224 3.327 5.764 8.652 10.011 15.131 2.27 3.464 6.918 4.431 10.379 2.16 3.463-2.27 4.43-6.917 2.16-10.379-3.385-5.165-6.872-10.435-10.083-15.241-8.277-12.391-24.355-17.432-38.23-11.986l-69.801 27.385-123.006-28.962c-14.509-3.416-29.707 3.859-36.138 17.3-11.296 23.61-32.525 69.197-47.786 109.236-12.688 33.289-10.14 72.916 6.817 105.998 3.905 7.619 8.562 14.835 13.374 21.944 22.288 32.927 29.781 74.277 20.558 113.447l-16.647 70.7-31.074-7.34c-14.286-3.363-28.652 5.524-32.017 19.811 0 0-2.974 12.636-2.977 12.649-1.391 5.911 2.428 12.12 8.361 13.519l20.643 4.873c4.03.949 8.067-1.545 9.018-5.575.951-4.029-1.545-8.066-5.574-9.018l-16.995-4.012 2.119-9c1.469-6.242 7.751-10.122 13.98-8.656l110.551 26.113c6.242 1.471 10.125 7.744 8.655 13.987l-2.117 8.995-82.52-19.479c-4.021-.953-8.066 1.544-9.018 5.575-.951 4.029 1.545 8.067 5.575 9.018l86.177 20.341c2.909.687 5.952.19 8.494-1.383 2.552-1.579 4.337-4.059 5.026-6.982l2.978-12.649c3.364-14.288-5.524-28.651-19.808-32.014l-31.832-7.519 16.654-70.735c9.068-38.516 33.548-71.694 67.295-91.354 3.925-1.757 7.77-3.746 11.509-5.979 8.718-5.207 16.777-11.389 24.061-18.32 8.879 8.6 18.965 16.066 29.992 21.976 7.536 4.038 15.485 7.332 23.483 10.439 37.061 14.399 66.746 44.144 81.444 81.605l26.529 67.616-29.732 11.641c-6.62 2.597-11.833 7.618-14.677 14.135-2.844 6.518-2.98 13.752-.383 20.373 0 0 4.745 12.094 4.746 12.096 2.225 5.672 9.151 8.187 14.588 6.354.806-.271 12.223-4.788 17.143-6.715 17.504-6.856 35.009-13.713 52.513-20.569 16.956-6.642 60.123-23.523 64.737-25.357 5.915-2.355 8.718-8.552 6.355-14.57zm-406.694-418.744c2.847-5.949 8.933-9.622 15.344-9.622 1.272 0 2.558.145 3.833.445l130.014 30.613c7.7 1.813 13.195 8.865 13.067 16.768-.301 18.542-1.065 49.277-2.993 80.68l-192.583-45.345c12.285-28.963 25.315-56.811 33.318-73.539zm12.496 351.936-16.651 70.724-18.461-4.361 16.65-70.711c7.139-30.322 5.179-61.832-5.118-90.504 17.9 11.106 38.55 16.743 59.282 16.743 2.982 0 6.035-.125 9.008-.37-21.878 21.034-37.597 48.272-44.71 78.479zm85.71-106.767c-19.664 11.746-43.322 16.029-65.719 12.439-68.326-10.952-102.456-91.8-78.47-152.905 2.319-5.909 4.665-11.457 7.086-17.075 0 0 197.029 46.393 197.029 46.394-1.408 22.047-3.775 42.956-14.27 62.901-10.437 19.835-26.41 36.75-45.656 48.246zm105.738 15.717c-13.503-1.968-24.911-5.971-36.915-12.405-9.864-5.287-18.881-11.961-26.802-19.648 17.288-20.406 28.503-45.487 31.051-71.302 1.016-10.301 1.864-21.047 2.573-31.79l118.447-46.472c2.7 4.491 5.295 8.929 7.792 13.283 23.677 41.288 23.546 97.792-8.39 134.863-21.501 24.956-55.017 38.243-87.756 33.471zm74.886 87.378c-11.377-28.998-30.913-53.801-55.69-71.523.807.577 6.475-.507 7.715-.658 6.635-.805 13.196-2.197 19.579-4.183 14.021-4.363 26.511-11.574 38.112-20.41-4.704 30.722-3.537 60.585 7.944 89.847l26.537 67.638-17.663 6.915zm-14.886 122.372-3.376-8.607c-2.343-5.97.608-12.731 6.573-15.072l105.776-41.414c1.377-.54 2.815-.809 4.251-.809 1.579 0 3.157.326 4.648.977 2.847 1.242 5.04 3.519 6.175 6.411l3.375 8.604z"/></g></g></svg>