<svg height="511pt" viewBox="0 -26 511.9994 511" width="511pt" xmlns="http://www.w3.org/2000/svg"><path d="m132.988281 253.171875c-20.457031 0-39.6875-7.96875-54.15625-22.433594-3.90625-3.90625-10.238281-3.90625-14.144531 0-3.90625 3.902344-3.90625 10.238281 0 14.144531 18.246094 18.242188 42.5 28.292969 68.300781 28.292969 5.527344 0 10.003907-4.480469 10.003907-10.003906s-4.476563-10-10.003907-10zm0 0"/><path d="m463.847656 422.285156-45.980468-19.207031c-5.355469-2.238281-8.816407-7.433594-8.816407-13.238281v-76.148438c24.054688-5.523437 46.136719-17.683594 64.019531-35.566406 33.363282-33.363281 46.601563-82.429688 34.546876-128.046875l-37.558594-142.132813c-1.160156-4.386718-5.128906-7.445312-9.671875-7.445312h-162.753907c-4.539062 0-8.511718 3.058594-9.671874 7.445312l-31.960938 120.949219-31.960938-120.949219c-1.160156-4.386718-5.132812-7.445312-9.671874-7.445312h-162.753907c-4.542969 0-8.511719 3.058594-9.671875 7.445312l-37.558594 142.132813c-12.054687 45.617187 1.179688 94.683594 34.546876 128.046875 17.898437 17.898438 40.007812 30.066406 64.089843 35.582031v76.070313c0 5.800781-3.460937 10.996094-8.8125 13.238281l-46.066406 19.273437c-8.398437 3.515626-13.015625 12.207032-11.222656 21.136719 1.792969 8.925781 9.40625 15.160157 18.511719 15.160157h155.117187c9.109375 0 16.722656-6.238282 18.515625-15.167969 1.789062-8.933594-2.832031-17.621094-11.238281-21.132813l-45.976563-19.207031c-5.355468-2.238281-8.816406-7.433594-8.816406-13.238281v-76.148438c24.054688-5.523437 46.136719-17.683594 64.019531-35.566406 12.628907-12.628906 22.367188-27.511719 28.949219-43.597656 6.582031 16.085937 16.320312 30.96875 28.949219 43.597656 17.902343 17.898438 40.007812 30.066406 64.089843 35.582031v76.070313c0 5.800781-3.460937 10.996094-8.8125 13.238281l-46.0625 19.273437c-8.402343 3.515626-13.015624 12.207032-11.222656 21.136719 1.792969 8.925781 9.402344 15.160157 18.511719 15.160157h155.117187c9.109376 0 16.722657-6.238282 18.511719-15.167969 1.789063-8.933594-2.832031-17.621094-11.234375-21.132813zm-158.515625-401.78125h147.355469l35.589844 134.683594c1.617187 6.121094 2.695312 12.3125 3.261718 18.511719-2.054687 1.53125-11.828124 8.324219-27.980468 11.605469-24.519532 4.980468-51.421875-.027344-79.960938-14.890626-41.523437-21.625-74.230468-20.375-94.359375-15.511718-8.550781 2.0625-15.648437 4.945312-21.195312 7.75.480469-2.496094 1.042969-4.988282 1.699219-7.464844zm-246.019531 0h147.351562l35.59375 134.683594c1.617188 6.121094 2.695313 12.3125 3.257813 18.511719-2.050781 1.53125-11.824219 8.324219-27.980469 11.605469-24.519531 4.980468-51.421875-.027344-79.957031-14.890626-41.523437-21.625-74.234375-20.375-94.359375-15.511718-8.550781 2.0625-15.648438 4.945312-21.195312 7.75.480468-2.496094 1.042968-4.988282 1.699218-7.464844zm104.824219 401.03125 40.808593 17.046875h-143.917968l40.902344-17.113281c12.8125-5.363281 21.09375-17.800781 21.09375-31.691406v-73.058594c3.300781.246094 6.625.367188 9.964843.367188 3.367188 0 6.714844-.125 10.039063-.371094v73.125c0 13.898437 8.285156 26.339844 21.109375 31.695312zm48.769531-157.554687c-21.347656 21.347656-49.726562 33.101562-79.917969 33.101562-30.1875 0-58.570312-11.753906-79.914062-33.101562-20.53125-20.53125-32.085938-48.0625-33.007813-76.40625.359375-.246094.710938-.511719 1.046875-.8125.097657-.085938 9.984375-8.605469 27.910157-12.675781 24.164062-5.488282 50.851562-.753907 79.3125 14.070312 27.5 14.320312 51.253906 19.074219 70.671874 19.074219 20.421876 0 36.039063-5.257813 46.191407-10.175781-2.917969 24.941406-14.0625 48.691406-32.292969 66.925781zm53.183594-76.40625c.359375-.246094.710937-.511719 1.042968-.8125.097657-.085938 9.984376-8.605469 27.910157-12.675781 24.167969-5.488282 50.851562-.753907 79.316406 14.070312 27.5 14.320312 51.25 19.074219 70.671875 19.074219 20.417969 0 36.035156-5.257813 46.1875-10.175781-2.917969 24.941406-14.058594 48.691406-32.292969 66.925781-21.347656 21.347656-49.726562 33.101562-79.917969 33.101562-30.1875 0-58.566406-11.753906-79.914062-33.101562-20.53125-20.53125-32.082031-48.0625-33.003906-76.40625zm40.957031 251.007812 40.902344-17.113281c12.8125-5.363281 21.09375-17.800781 21.09375-31.691406v-73.058594c3.300781.246094 6.625.367188 9.964843.367188 3.367188 0 6.714844-.125 10.039063-.371094v73.125c0 13.898437 8.285156 26.339844 21.109375 31.695312l40.808594 17.046875zm0 0"/><path d="m60.6875 200.136719c-1.859375-1.871094-4.441406-2.929688-7.070312-2.929688-2.640626 0-5.210938 1.058594-7.070313 2.929688-1.871094 1.863281-2.933594 4.433593-2.933594 7.074219 0 2.628906 1.0625 5.210937 2.933594 7.070312 1.859375 1.859375 4.429687 2.929688 7.070313 2.929688 2.628906 0 5.210937-1.070313 7.070312-2.929688s2.929688-4.441406 2.929688-7.070312c0-2.640626-1.070313-5.210938-2.929688-7.074219zm0 0"/></svg>