<svg height="512pt" viewBox="0 -16 512 512" width="512pt" xmlns="http://www.w3.org/2000/svg"><path d="m133 253.210938c-51.210938 0-92.871094 41.664062-92.871094 92.875 0 51.207031 41.660156 92.871093 92.871094 92.871093s92.871094-41.664062 92.871094-92.871093c0-51.210938-41.660156-92.875-92.871094-92.875zm0 165.746093c-40.183594 0-72.871094-32.691406-72.871094-72.871093 0-40.183594 32.6875-72.875 72.871094-72.875s72.871094 32.691406 72.871094 72.875c0 40.179687-32.6875 72.871093-72.871094 72.871093zm0 0"/><path d="m256 225.871094c51.210938 0 92.871094-41.660156 92.871094-92.871094s-41.660156-92.871094-92.871094-92.871094-92.871094 41.660156-92.871094 92.871094 41.660156 92.871094 92.871094 92.871094zm0-165.742188c40.183594 0 72.871094 32.6875 72.871094 72.871094s-32.6875 72.871094-72.871094 72.871094-72.871094-32.6875-72.871094-72.871094 32.6875-72.871094 72.871094-72.871094zm0 0"/><path d="m379 253.210938c-51.210938 0-92.871094 41.664062-92.871094 92.875 0 51.207031 41.660156 92.871093 92.871094 92.871093s92.871094-41.664062 92.871094-92.871093c0-51.210938-41.660156-92.875-92.871094-92.875zm0 165.746093c-40.183594 0-72.871094-32.691406-72.871094-72.871093 0-40.183594 32.6875-72.875 72.871094-72.875s72.871094 32.691406 72.871094 72.875c0 40.179687-32.6875 72.871093-72.871094 72.871093zm0 0"/><path d="m379 213.085938c-6.035156 0-11.976562.410156-17.800781 1.191406 17.417969-22.492188 27.800781-50.691406 27.800781-81.277344 0-73.335938-59.664062-133-133-133s-133 59.664062-133 133c0 30.585938 10.382812 58.785156 27.800781 81.277344-5.824219-.78125-11.765625-1.191406-17.800781-1.191406-73.335938 0-133 59.660156-133 133 0 73.335937 59.664062 133 133 133 55.4375 0 103.054688-34.101563 123-82.425782 19.945312 48.324219 67.5625 82.425782 123 82.425782 73.335938 0 133-59.664063 133-133 0-73.339844-59.664062-133-133-133zm-123-193.085938c62.308594 0 113 50.691406 113 113s-50.691406 113-113 113-113-50.691406-113-113 50.691406-113 113-113zm17.800781 244.804688c-7.226562 9.332031-13.238281 19.644531-17.800781 30.703124-4.5625-11.058593-10.574219-21.371093-17.800781-30.703124 5.824219.785156 11.765625 1.195312 17.800781 1.195312s11.976562-.410156 17.800781-1.195312zm-140.800781 194.28125c-62.308594 0-113-50.691407-113-113 0-62.3125 50.691406-113 113-113s113 50.6875 113 113c0 62.308593-50.691406 113-113 113zm246 0c-62.308594 0-113-50.691407-113-113 0-62.3125 50.691406-113 113-113s113 50.6875 113 113c0 62.308593-50.691406 113-113 113zm0 0"/><path d="m133 346.582031c-2.628906 0-5.210938 1.070313-7.070312 2.929688-1.859376 1.859375-2.929688 4.441406-2.929688 7.070312 0 2.640625 1.070312 5.210938 2.929688 7.070313 1.859374 1.867187 4.441406 2.929687 7.070312 2.929687s5.210938-1.0625 7.070312-2.929687c1.859376-1.859375 2.929688-4.441406 2.929688-7.070313 0-2.628906-1.070312-5.210937-2.929688-7.070312-1.859374-1.859375-4.441406-2.929688-7.070312-2.929688zm0 0"/><path d="m99.5 346.585938h-14.75c-5.523438 0-10 4.476562-10 10 0 5.519531 4.476562 10 10 10h14.75c5.523438 0 10-4.480469 10-10 0-5.523438-4.476562-10-10-10zm0 0"/><path d="m379 346.582031c-2.628906 0-5.210938 1.070313-7.070312 2.929688-1.859376 1.859375-2.929688 4.441406-2.929688 7.070312 0 2.628907 1.070312 5.210938 2.929688 7.070313 1.859374 1.867187 4.441406 2.929687 7.070312 2.929687s5.210938-1.0625 7.070312-2.929687c1.859376-1.859375 2.929688-4.441406 2.929688-7.070313 0-2.628906-1.070312-5.210937-2.929688-7.070312-1.859374-1.859375-4.441406-2.929688-7.070312-2.929688zm0 0"/><path d="m345.5 346.585938h-14.75c-5.523438 0-10 4.476562-10 10 0 5.519531 4.476562 10 10 10h14.75c5.523438 0 10-4.480469 10-10 0-5.523438-4.476562-10-10-10zm0 0"/><path d="m256.128906 153.503906c2.632813 0 5.210938-1.070312 7.070313-2.933594 1.859375-1.859374 2.929687-4.4375 2.929687-7.066406 0-2.632812-1.070312-5.210937-2.929687-7.070312-1.859375-1.871094-4.4375-2.929688-7.070313-2.929688-2.628906 0-5.207031 1.058594-7.070312 2.929688-1.867188 1.859375-2.929688 4.4375-2.929688 7.070312 0 2.628906 1.0625 5.207032 2.929688 7.066406 1.863281 1.863282 4.441406 2.933594 7.070312 2.933594zm0 0"/><path d="m222.628906 153.5c5.519532 0 10-4.476562 10-10s-4.480468-10-10-10h-14.75c-5.523437 0-10 4.476562-10 10s4.476563 10 10 10zm0 0"/></svg>