<svg height="512" viewBox="0 0 48 60" width="512" xmlns="http://www.w3.org/2000/svg"><g id="Page-1" fill="none" fill-rule="evenodd"><g id="022---Bottle-Present" fill="rgb(0,0,0)" fill-rule="nonzero" transform="translate(-1)"><path id="Shape" d="m45.186 27.08c.3835284-.5818656.6397913-1.2381986.752-1.926.1273486-.8074245.0587553-1.6336306-.2-2.409-1.575-4.745-5.661-7.353-7.333-8.245-.633713-.3609916-1.3591247-.5288756-2.087-.483-2.2864691.122116-4.4813713.938402-6.292 2.34-.005-.094-.026-.187-.026-.282v-13.075c0-1.65685425-1.3431458-3-3-3h-4c-1.6568542 0-3 1.34314575-3 3v13.07c0 .1-.021.192-.027.289-1.8104511-1.3988564-4.0042558-2.2126816-6.289-2.333-.7258762-.0393362-1.4481458.1266749-2.084.479-1.684.912-5.769 3.541-7.338 8.253-.49130379 1.4497334-.29003676 3.0447563.546 4.327 1.48336785 2.3536136 3.53992693 4.2921536 5.977 5.634-1.94315711 2.3391526-3.24412437 5.1437279-3.775 8.138-.05148501.3539774.09002232.7084973.37110366.9297302s.65892483.2754825.99089634.1422698l2.628-1.052v16.123c0 1.6568542 1.3431458 3 3 3h22c1.6568542 0 3-1.3431458 3-3v-16.123l2.628 1.052c.3319715.1332127.709815.0789631.9908963-.1422698.2810814-.2212329.4225887-.5757528.3711037-.9297302-.5313088-2.997188-1.8340674-5.8043225-3.78-8.145 2.4149285-1.3707937 4.464606-3.3024843 5.976-5.632zm-15.9.177c.6-1.679 2.249-5.447 5.408-6.832-.6745264 2.9926408-2.293557 5.6890385-4.618 7.691-.2306561-.3163058-.4974633-.6045919-.795-.859zm-.286 3.743v2c0 .5522847-.4477153 1-1 1h-6c-.5522847 0-1-.4477153-1-1v-2c0-1.6568542 1.3431458-3 3-3h2c1.6568542 0 3 1.3431458 3 3zm-9.07-2.884c-2.3248128-2.0018162-3.9442036-4.69823-4.619-7.691 3.16 1.385 4.811 5.154 5.408 6.833-.2954308.2543858-.560216.5423271-.789.858zm5.059-4.623c-.7549492-2.0096656-1.8604081-3.8694774-3.265-5.493.1839818-.6267897.2769319-1.2767667.276-1.93v-8.07h6v8.07c.0001196.6466378.0916931 1.290009.272 1.911-1.4150342 1.6263074-2.5269651 3.4931863-3.283 5.512zm-1.989-21.493h4c.5522847 0 1 .44771525 1 1v3h-6v-3c0-.55228475.4477153-1 1-1zm-16.517 23.994c-.50075285-.7712132-.62016742-1.7294782-.324-2.6 1.343-4.035 4.918-6.328 6.393-7.126.3066644-.1726564.655369-.2564563 1.007-.242 6.92.434 9.441 7.214 10.188 10-.4287455.0226229-.8526827.1012917-1.261.234-.894-2.4-3.093-6.825-7.443-8.05-.5091668-.146788-1.0580103-.0149896-1.445.347-.3831135.3516367-.5532441.8787378-.448 1.388.428 2.116 1.85 7.167 5.95 10.064-.0663736.3261605-.0998746.6581546-.1.991v.353c-6.678 2.547-11.249-3.415-12.517-5.359zm6.24 7.521c.9943946.3132722 2.0304323.4744261 3.073.478 1.1044836-.0065513 2.2013595-.1832927 3.252-.524.1254792.7973141.5675579 1.510193 1.226 1.977-2.1924706 1.5690243-3.9758569 3.641868-5.2 6.044l-1.144-2.862c-.0985145-.2462643-.2908294-.4433028-.5346314-.5477625-.2438019-.1044598-.5191165-.1077826-.7653686-.0092375l-3.23 1.293c.707871-2.1511652 1.8375606-4.1395957 3.323-5.849zm23.277 24.485h-22c-.5522847 0-1-.4477153-1-1v-3h3c.5522847 0 1-.4477153 1-1s-.4477153-1-1-1h-3v-10.307l1.071 2.679c.1521275.3795963.520055.6283137.929.628h.011c.4130906-.0042946.7810197-.2621629.926-.649.027-.074 2.84-7.413 8.172-8.351h1.782c5.315.935 8.145 8.278 8.173 8.352.1453056.3864437.5131619.6438636.926.648h.01c.408945.0003137.7768725-.2484037.929-.628l1.071-2.679v10.307h-17c-.5522847 0-1 .4477153-1 1s.4477153 1 1 1h17v3c0 .5522847-.4477153 1-1 1zm4.6-18.636-3.231-1.293c-.2462521-.0985451-.5215667-.0952223-.7653686.0092375-.243802.1044597-.4361169.3014982-.5346314.5477625l-1.142 2.862c-1.2240777-2.4021759-3.0074763-4.4750338-5.2-6.044.6601909-.4672801 1.1031543-1.1818653 1.228-1.981 1.0543654.3450921 2.1556374.5255455 3.265.535.5651915.0029154 1.129489-.0452808 1.686-.144.4649839-.0809778.9237612-.1942521 1.373-.339 1.484407 1.7090466 2.613388 3.6967466 3.321 5.847zm-5.04-7.477c-.4423819.0777153-.8908508.115534-1.34.113-1.1033854-.0160508-2.1945847-.233274-3.22-.641v-.359c-.0001254-.3328454-.0336264-.6648395-.1-.991 4.1-2.9 5.522-7.948 5.951-10.064.1050788-.5090607-.0645976-1.0359307-.447-1.388-.3873013-.3621629-.9365231-.4939609-1.446-.347-4.35 1.225-6.549 5.655-7.443 8.05-.4070661-.1322335-.8296189-.2108948-1.257-.234.06-.218.131-.461.217-.726 1.038-3.3 3.713-8.9 9.979-9.293.3480028-.0169714.6934113.067817.994.244 1.472.791 5.044 3.066 6.392 7.121.1575897.4711083.2001079.9730977.124 1.464-.0674602.4107255-.2215382.802397-.452 1.149-.781 1.203-3.662 5.181-7.952 5.902z"/><path id="Shape" d="m21 44h8c.5522847 0 1-.4477153 1-1s-.4477153-1-1-1h-8c-.5522847 0-1 .4477153-1 1s.4477153 1 1 1z"/><path id="Shape" d="m27 46h-4c-.5522847 0-1 .4477153-1 1s.4477153 1 1 1h4c.5522847 0 1-.4477153 1-1s-.4477153-1-1-1z"/><path id="Shape" d="m16.707 7.293c-.3904999-.39038194-1.0235001-.39038194-1.414 0l-.293.293-.293-.293c-.2510745-.25995658-.6228779-.3642126-.9725073-.27269716-.3496295.09151544-.6226744.3645604-.7141899.71418984-.0915154.34962943.0127406.72143285.2726972.97250732l.293.293-.293.293c-.2599566.25107447-.3642126.62287789-.2726972.9725073.0915155.3496295.3645604.6226744.7141899.7141899.3496294.0915154.7214328-.0127406.9725073-.2726972l.293-.293.293.293c.3923789.3789722 1.0160848.3735524 1.4018186-.0121814s.3911536-1.00943971.0121814-1.4018186l-.293-.293.293-.293c.3903819-.39049985.3903819-1.02350015 0-1.414z"/><path id="Shape" d="m9.293 3.707c.39049985.39038194 1.0235001.39038194 1.414 0l.293-.293.293.293c.3923789.37897221 1.0160848.37355237 1.4018186-.01218142.3857338-.3857338.3911536-1.00943969.0121814-1.40181858l-.293-.293.293-.293c.3789722-.39237889.3735524-1.01608478-.0121814-1.40181857-.3857338-.3857338-1.0094397-.39115364-1.4018186-.01218143l-.293.293-.293-.293c-.3923789-.37897221-1.01608478-.37355237-1.40181858.01218143-.38573379.38573379-.39115363 1.00943968-.01218142 1.40181857l.293.293-.293.293c-.39038194.39049985-.39038194 1.02350015 0 1.414z"/><path id="Shape" d="m8.707 10.293c-.39049985-.39038194-1.02350015-.39038194-1.414 0l-.293.293-.293-.293c-.39237889-.37897221-1.01608478-.37355237-1.40181858.0121814-.38573379.3857338-.39115363 1.0094397-.01218142 1.4018186l.293.293-.293.293c-.25995658.2510745-.3642126.6228779-.27269716.9725073.09151544.3496295.3645604.6226744.71418984.7141899.34962943.0915154.72143285-.0127406.97250732-.2726972l.293-.293.293.293c.39237889.3789722 1.01608478.3735524 1.40181858-.0121814.38573379-.3857338.39115363-1.0094397.01218142-1.4018186l-.293-.293.293-.293c.39038194-.3904999.39038194-1.0235001 0-1.414z"/><path id="Shape" d="m6.707 32.293c-.39049985-.3903819-1.02350015-.3903819-1.414 0l-.293.293-.293-.293c-.39237889-.3789722-1.01608478-.3735524-1.40181858.0121814-.38573379.3857338-.39115363 1.0094397-.01218142 1.4018186l.293.293-.293.293c-.25995658.2510745-.3642126.6228779-.27269716.9725073.09151544.3496295.3645604.6226744.71418984.7141899.34962943.0915154.72143285-.0127406.97250732-.2726972l.293-.293.293.293c.39237889.3789722 1.01608478.3735524 1.40181858-.0121814.38573379-.3857338.39115363-1.0094397.01218142-1.4018186l-.293-.293.293-.293c.39038194-.3904999.39038194-1.0235001 0-1.414z"/><path id="Shape" d="m4.707 39.293c-.39049985-.3903819-1.02350015-.3903819-1.414 0l-.293.293-.293-.293c-.39237889-.3789722-1.01608478-.3735524-1.40181858.0121814-.38573379.3857338-.39115363 1.0094397-.01218142 1.4018186l.293.293-.293.293c-.25995658.2510745-.3642126.6228779-.27269716.9725073.09151544.3496295.3645604.6226744.71418984.7141899.34962943.0915154.72143285-.0127406.97250732-.2726972l.293-.293.293.293c.39237889.3789722 1.01608478.3735524 1.40181858-.0121814.38573379-.3857338.39115363-1.0094397.01218142-1.4018186l-.293-.293.293-.293c.39038194-.3904999.39038194-1.0235001 0-1.414z"/><path id="Shape" d="m33.293 10.707c.3904999.3903819 1.0235001.3903819 1.414 0l.293-.293.293.293c.3923789.3789722 1.0160848.3735524 1.4018186-.0121814s.3911536-1.00943971.0121814-1.4018186l-.293-.293.293-.293c.2599566-.25107447.3642126-.62287789.2726972-.97250732-.0915155-.34962944-.3645604-.6226744-.7141899-.71418984-.3496294-.09151544-.7214328.01274058-.9725073.27269716l-.293.293-.293-.293c-.2510745-.25995658-.6228779-.3642126-.9725073-.27269716-.3496295.09151544-.6226744.3645604-.7141899.71418984-.0915154.34962943.0127406.72143285.2726972.97250732l.293.293-.293.293c-.3903819.39049985-.3903819 1.0235001 0 1.414z"/><path id="Shape" d="m37.293 3.707c.3904999.39038194 1.0235001.39038194 1.414 0l.293-.293.293.293c.3923789.37897221 1.0160848.37355237 1.4018186-.01218142.3857338-.3857338.3911536-1.00943969.0121814-1.40181858l-.293-.293.293-.293c.3789722-.39237889.3735524-1.01608478-.0121814-1.40181857-.3857338-.3857338-1.0094397-.39115364-1.4018186-.01218143l-.293.293-.293-.293c-.3923789-.37897221-1.0160848-.37355237-1.4018186.01218143-.3857338.38573379-.3911536 1.00943968-.0121814 1.40181857l.293.293-.293.293c-.3903819.39049985-.3903819 1.02350015 0 1.414z"/><path id="Shape" d="m44.707 10.293c-.3904999-.39038194-1.0235001-.39038194-1.414 0l-.293.293-.293-.293c-.3923789-.37897221-1.0160848-.37355237-1.4018186.0121814-.3857338.3857338-.3911536 1.0094397-.0121814 1.4018186l.293.293-.293.293c-.2599566.2510745-.3642126.6228779-.2726972.9725073.0915155.3496295.3645604.6226744.7141899.7141899.3496294.0915154.7214328-.0127406.9725073-.2726972l.293-.293.293.293c.3923789.3789722 1.0160848.3735524 1.4018186-.0121814s.3911536-1.0094397.0121814-1.4018186l-.293-.293.293-.293c.3903819-.3904999.3903819-1.0235001 0-1.414z"/><path id="Shape" d="m43.293 35.707c.3904999.3903819 1.0235001.3903819 1.414 0l.293-.293.293.293c.3923789.3789722 1.0160848.3735524 1.4018186-.0121814s.3911536-1.0094397.0121814-1.4018186l-.293-.293.293-.293c.3789722-.3923789.3735524-1.0160848-.0121814-1.4018186s-1.0094397-.3911536-1.4018186-.0121814l-.293.293-.293-.293c-.3923789-.3789722-1.0160848-.3735524-1.4018186.0121814s-.3911536 1.0094397-.0121814 1.4018186l.293.293-.293.293c-.3903819.3904999-.3903819 1.0235001 0 1.414z"/><path id="Shape" d="m48.707 39.293c-.3904999-.3903819-1.0235001-.3903819-1.414 0l-.293.293-.293-.293c-.3923789-.3789722-1.0160848-.3735524-1.4018186.0121814s-.3911536 1.0094397-.0121814 1.4018186l.293.293-.293.293c-.2599566.2510745-.3642126.6228779-.2726972.9725073.0915155.3496295.3645604.6226744.7141899.7141899.3496294.0915154.7214328-.0127406.9725073-.2726972l.293-.293.293.293c.3923789.3789722 1.0160848.3735524 1.4018186-.0121814s.3911536-1.0094397.0121814-1.4018186l-.293-.293.293-.293c.3903819-.3904999.3903819-1.0235001 0-1.414z"/></g></g></svg>