<svg id="Layer_1" enable-background="new 0 0 512.002 512.002" height="512" viewBox="0 0 512.002 512.002" width="512" xmlns="http://www.w3.org/2000/svg"><g><g><path d="m353.939 423.909c2.829-5.149 8.313-9.362 20.929-12.33 3.93-.925 6.918-4.121 7.576-8.104.658-3.982-1.144-7.971-4.567-10.11-.189-.118-18.882-12.014-12.942-26.86 1.746-4.363.38-9.5-3.509-12.138-3.862-2.619-8.857-2.361-12.265.809-1.173.88-12.149 8.432-32.806.268-3.181-1.259-6.782-.783-9.55 1.227-2.768 2.009-4.315 5.312-4.104 8.726.269 4.365-.363 16.208-5.868 22.544-17.513 3.63-31.335 17.464-34.939 34.984-5.792 1.191-11.179 3.5-15.93 6.686v-94.667c16.539-5.7 31.269-15.944 42.054-29.371 13.113-16.323 19.417-36.354 17.751-56.398l-19.948-240c-.431-5.187-4.764-9.175-9.966-9.175h-119.681c-5.202 0-9.535 3.988-9.966 9.172l-19.948 240c-1.661 19.987 4.775 40.015 18.123 56.392 10.795 13.246 25.395 23.427 41.687 29.188v122.43l-27.911 4.976c-13.881 2.475-23.206 12.459-23.206 24.845 0 13.785 11.197 25 24.961 25h181.076c24.818 0 45.009-20.187 45.009-45 0-20.315-13.535-37.519-32.06-43.094zm-9.718-45.694c1.297 7.577 4.983 14.302 9.377 19.777-4.296 2.214-7.917 4.852-10.953 7.958-5.717-8.019-13.988-14.093-23.623-17.015 1.429-3.776 2.333-7.565 2.886-11.016 8.801 1.782 16.279 1.478 22.313.296zm-38.24 28.787c10.803 0 20.026 6.883 23.516 16.492-9.388 2.481-17.579 7.927-23.516 15.269-5.936-7.343-14.127-12.788-23.515-15.269 3.49-9.609 12.713-16.492 23.515-16.492zm-35.008 35c13.789 0 25.008 11.215 25.008 25s-11.219 25-25.008 25c-13.79 0-25.009-11.215-25.009-25s11.219-25 25.009-25zm-105.596-422.002h101.274l12.875 154.908h-127.024zm-19.2 240h35.045c5.522 0 10-4.478 10-10s-4.478-10-10-10h-34.13l3.748-45.092h130.35l4.648 55.92c2.465 29.659-19.491 58.119-51.215 66.67h-36.736c-24.717-6.789-49.384-28.562-51.71-57.498zm8.776 227.002c0-3.847 6.029-5.032 6.716-5.155l36.156-6.445c4.771-.851 8.245-4.999 8.245-9.845v-128.059h19.895v129.504c0 9.245 2.805 17.844 7.606 25h-73.656c-2.691 0-4.962-2.29-4.962-5zm186.037 5c-13.79 0-25.009-11.215-25.009-25s11.219-25 25.009-25 25.009 11.215 25.009 25-11.219 25-25.009 25z"/><path d="m226.219 260h.007c5.522 0 9.997-4.478 9.997-10s-4.481-10-10.004-10-10 4.478-10 10 4.478 10 10 10z"/></g></g></svg>