<svg height="511pt" viewBox="-23 1 511 511.99899" width="511pt" xmlns="http://www.w3.org/2000/svg"><path d="m112.839844 230c-2.640625 0-5.210938 1.066406-7.070313 2.929688-1.859375 1.859374-2.929687 4.4375-2.929687 7.070312 0 2.628906 1.070312 5.210938 2.929687 7.066406 1.859375 1.863282 4.429688 2.933594 7.070313 2.933594 2.628906 0 5.210937-1.070312 7.070312-2.933594 1.859375-1.855468 2.929688-4.4375 2.929688-7.066406 0-2.632812-1.070313-5.210938-2.929688-7.070312-1.859375-1.863282-4.441406-2.929688-7.070312-2.929688zm0 0"/><path d="m461.832031 50.488281c3.007813-3.011719 4.664063-7.011719 4.664063-11.265625 0-4.257812-1.65625-8.257812-4.664063-11.265625l-23.292969-23.289062c-3.007812-3.011719-7.007812-4.667969-11.261718-4.667969-4.257813 0-8.257813 1.65625-11.265625 4.664062l-65.835938 65.835938c-12.902343 12.902344-31.277343 18.425781-49.152343 14.773438-19.046876-3.890626-38.507813-.171876-54.527344 9.988281l-30.859375-30.859375c-4.445313-4.441406-10.351563-6.890625-16.636719-6.890625s-12.191406 2.445312-16.636719 6.890625l-38.460937 38.460937c-3.253906 3.253907-5.441406 7.382813-6.375 11.804688h-24.246094c-3.832031 0-7.464844.867187-10.71875 2.410156l-25.535156-25.535156c-9.980469-9.980469-26.226563-9.980469-36.210938 0l-30.65625 30.65625c-9.984375 9.984375-9.984375 26.230469 0 36.210937l14.589844 14.589844h-14.25c-5.523438 0-10 4.476562-10 10v57c0 5.519531 4.476562 10 10 10h13.410156l16.3125 76.308594c-.398437.292968-.785156.609375-1.144531.96875l-22.273437 22.273437c-21.199219 21.199219-21.199219 55.695313 0 76.894531 10.597656 10.597657 24.523437 15.898438 38.445312 15.898438 3.210938 0 6.417969-.296875 9.589844-.859375l13.378906 62.601563c.988281 4.613281 5.0625 7.910156 9.78125 7.910156h203.828125c.011719 0 .027344.003906.039063.003906.015624 0 .027343-.003906.042968-.003906h41.089844c4.714844 0 8.792969-3.296875 9.777344-7.910156l54.308594-254.085938h13.410156c5.523437 0 10-4.480469 10-10v-57c0-5.523438-4.476563-10-10-10h-28.140625c-.25-2.527344-.621094-5.039062-1.128907-7.523438-3.652343-17.878906 1.867188-36.253906 14.769532-49.152343zm-34.554687-28.800781 17.535156 17.535156-52.613281 52.609375-17.535157-17.535156zm-188.511719 107.058594 44.253906 44.253906h-88.488281zm-42.261719-50.203125c.898438-.898438 1.949219-1.03125 2.496094-1.03125.542969 0 1.59375.132812 2.492188 1.03125l29.59375 29.59375-50.6875 50.710937v-19.066406c0-12.253906-8.828126-22.480469-20.457032-24.671875zm-41.222656 56.125c2.820312 0 5.117188 2.292969 5.117188 5.113281v33.21875h-52.230469v-33.21875c0-2.820312 2.292969-5.113281 5.113281-5.113281zm-132.621094 5.636719c0-1.496094.582032-2.902344 1.640625-3.960938l30.660157-30.65625c1.089843-1.09375 2.527343-1.640625 3.960937-1.640625 1.4375 0 2.871094.546875 3.964844 1.640625l24.476562 24.476562-38.585937 38.582032-24.476563-24.476563c-1.058593-1.058593-1.640625-2.464843-1.640625-3.964843zm65.503906 17.335937v15.359375h-15.355468zm-57.21875 254.660156c-13.402343-13.398437-13.402343-35.203125 0-48.605469l14.226563-14.226562 15.484375 72.453125c-10.503906 1.660156-21.632812-1.542969-29.710938-9.621094zm369.550782-182.300781h-247.996094c-5.523438 0-10 4.476562-10 10 0 5.519531 4.476562 10 10 10h224.132812l-51.722656 242h-20.691406l13.820312-64.652344c1.152344-5.398437-2.289062-10.714844-7.691406-11.867187-5.402344-1.152344-10.714844 2.289062-11.867187 7.6875l-14.714844 68.832031h-187.679687l-12.332032-57.710938c3.535156-2.179687 6.878906-4.78125 9.941406-7.84375l96.976563-96.976562c5.691406 3.296875 12.289063 5.195312 19.324219 5.195312 21.324218 0 38.667968-17.34375 38.667968-38.664062s-17.34375-38.667969-38.667968-38.667969c-21.320313 0-38.664063 17.347657-38.664063 38.667969 0 7.035156 1.898438 13.636719 5.199219 19.324219l-96.980469 96.976562c-.132812.136719-.277343.261719-.414062.398438l-34.773438-162.699219h20.136719c5.523438 0 10-4.480469 10-10 0-5.523438-4.476562-10-10-10h-44v-37h379.996094zm-209.164063 66c0-10.292969 8.375-18.667969 18.667969-18.667969s18.664062 8.375 18.664062 18.667969-8.371093 18.664062-18.664062 18.664062c-1.398438 0-2.757812-.164062-4.066406-.457031l11.136718-11.136719c3.90625-3.90625 3.90625-10.238281 0-14.140624-3.90625-3.90625-10.238281-3.90625-14.144531 0l-11.136719 11.132812c-.289062-1.308594-.457031-2.667969-.457031-4.0625zm119.972657-123-58.0625-58.0625c12.363281-9.488281 28.253906-13.242188 43.777343-10.070312 22.707031 4.640624 46.003907-1.542969 63.363281-16.570313l17.816407 17.820313c-15.027344 17.355468-21.210938 40.648437-16.570313 63.363281.238282 1.164062.4375 2.339843.601563 3.519531zm0 0"/><path d="m315.828125 392.527344c2.640625 0 5.210937-1.070313 7.070313-2.929688 1.871093-1.859375 2.929687-4.4375 2.929687-7.070312 0-2.628906-1.058594-5.210938-2.929687-7.070313-1.859376-1.859375-4.429688-2.929687-7.070313-2.929687-2.628906 0-5.210937 1.070312-7.070313 2.929687-1.859374 1.859375-2.929687 4.441407-2.929687 7.070313 0 2.632812 1.070313 5.210937 2.929687 7.070312 1.859376 1.859375 4.441407 2.929688 7.070313 2.929688zm0 0"/></svg>